<?xml version="1.0" encoding="UTF-8" standalone="no"?>
<svg
   width="125"
   height="39"
   viewBox="0 0 125 39"
   fill="none"
   version="1.1"
   id="svg6488"
   sodipodi:docname="clients-03.svg"
   inkscape:version="1.2.2 (732a01da63, 2022-12-09)"
   xmlns:inkscape="http://www.inkscape.org/namespaces/inkscape"
   xmlns:sodipodi="http://sodipodi.sourceforge.net/DTD/sodipodi-0.dtd"
   xmlns="http://www.w3.org/2000/svg"
   xmlns:svg="http://www.w3.org/2000/svg">
  <sodipodi:namedview
     id="namedview6490"
     pagecolor="#ffffff"
     bordercolor="#000000"
     borderopacity="0.25"
     inkscape:showpageshadow="2"
     inkscape:pageopacity="0.0"
     inkscape:pagecheckerboard="0"
     inkscape:deskcolor="#d1d1d1"
     showgrid="false"
     inkscape:zoom="3.7561512"
     inkscape:cx="-9.5842787"
     inkscape:cy="26.489881"
     inkscape:window-width="1920"
     inkscape:window-height="1001"
     inkscape:window-x="-9"
     inkscape:window-y="41"
     inkscape:window-maximized="1"
     inkscape:current-layer="svg6488" />
  <defs
     id="defs6486">
    <clipPath
       id="clip0_3_6">
      <rect
         width="125"
         height="39"
         fill="white"
         id="rect6483" />
    </clipPath>
  </defs>
  <path
     d="m 22.826121,32.678438 c 1.230015,-1.172875 2.298581,-2.13281 2.374596,-2.13281 0.495543,0 -1.071428,1.941069 -2.78332,3.447736 -1.11904,0.984814 -1.859613,1.784838 -1.645705,1.777887 0.572218,-0.01841 2.872742,-2.200632 4.317784,-4.094872 1.109845,-1.454864 1.321858,-1.567195 1.778629,-0.942622 0.448346,0.612987 0.614349,0.469777 1.225687,-1.057883 0.827352,-2.067647 0.920577,-5.955712 0.200418,-8.359127 -0.622113,-2.076167 -2.965511,-4.891148 -4.605703,-5.532422 -0.669976,-0.261949 -2.075708,-0.695669 -3.123832,-0.963548 -3.424526,-0.875753 -5.062522,-3.754604 -3.2657,-5.7398407 1.827557,-2.0190462 5.499547,-0.1431415 7.01348,3.5830377 l 0.968905,2.384875 0.01343,-3.605123 C 25.30761,8.0053971 25.2697,7.862733 24.475857,8.3584123 c -0.648609,0.4049536 -1.36386,0.3922075 -3.239962,-0.057943 -2.908501,-0.6977129 -4.7462,-0.3884583 -6.743113,1.134363 -3.119969,2.3794217 -3.469616,6.4453247 -0.758896,8.8250197 0.798137,0.700713 2.770545,1.712928 4.383138,2.249504 3.835185,1.276209 4.640813,2.095252 4.4789,4.553947 -0.06908,1.048342 -0.306283,1.79445 -0.527171,1.658057 -0.220915,-0.136325 -0.278607,0.07272 -0.12822,0.464528 0.150387,0.391867 0.05514,0.847193 -0.211549,1.012079 -0.32224,0.199171 -0.360969,0.09447 -0.115366,-0.313412 0.314748,-0.522194 0.259986,-0.524171 -0.369134,-0.01363 -0.785159,0.636776 -1.039563,1.602641 -0.302098,1.146974 0.907409,-0.560774 0.392209,1.015828 -0.545737,1.669916 l -0.982326,0.685172 0.976137,0.0225 c 1.093792,0.02522 2.86007,-2.306556 3.851524,-5.085547 0.363375,-1.018623 0.598761,-1.314722 0.610532,-0.767853 0.0109,0.489476 -0.361145,1.635768 -0.825988,2.547444 -0.464822,0.911606 -0.752127,1.899761 -0.638439,2.196064 0.212457,0.553616 -3.471598,4.287158 -5.610965,5.686333 -0.660333,0.431947 -1.200617,0.968523 -1.200617,1.192574 0,0.603852 3.689017,-2.044267 6.249704,-4.486398 z M 15.096476,34.33963 C 11.340577,31.972477 10.054594,30.915479 8.6222845,29.017899 6.2032947,25.813028 5.4405344,23.234094 5.4591015,18.32277 5.4729443,14.658686 5.6219695,13.871953 6.7385626,11.566146 8.3001078,8.3415761 11.237386,5.3488939 14.370054,3.7904915 c 1.99319,-0.991426 2.946562,-1.1826221 5.893942,-1.1824857 2.960665,3.41e-4 3.929958,0.196854 6.135668,1.243832 3.149183,1.4949438 5.964096,4.4152358 7.563409,7.8466122 0.904069,1.939706 1.189425,3.31032 1.31479,6.31568 0.178791,4.285999 -0.494275,7.061378 -2.416864,9.966334 -0.622467,0.94044 -1.018977,1.822737 -0.881098,1.960493 0.322001,0.322001 2.136654,-2.589498 3.028903,-4.859723 C 37.485392,18.7798 35.610551,10.659447 30.596384,5.9698565 20.440394,-3.5285412 4.7885379,4.2321856 4.7885379,18.766372 c 0,6.759009 3.3671741,12.370567 9.3866451,15.643261 1.18025,0.64182 1.956929,0.582722 0.921293,-0.07001 z"
     style="fill:#919191;fill-opacity:1;stroke-width:0.245565"
     id="path7029" />
  <text
     xml:space="preserve"
     style="font-weight:900;font-size:18.085px;font-family:Arial;-inkscape-font-specification:'Arial Heavy';fill:#919191;fill-opacity:1;stroke:#919191;stroke-width:0.589245;stroke-linecap:square;stroke-linejoin:bevel;stroke-opacity:1;paint-order:markers fill stroke"
     x="37.818596"
     y="25.992128"
     id="text7489"><tspan
       sodipodi:role="line"
       id="tspan7487"
       x="37.818596"
       y="25.992128"
       style="stroke-width:0.589245">SNACKS</tspan></text>
</svg>
