<?xml version="1.0" encoding="UTF-8" standalone="no"?>
<svg
   width="113"
   height="30"
   viewBox="0 0 113 30"
   fill="none"
   version="1.1"
   id="svg482"
   sodipodi:docname="clients-05.svg"
   inkscape:version="1.2.2 (732a01da63, 2022-12-09)"
   xmlns:inkscape="http://www.inkscape.org/namespaces/inkscape"
   xmlns:sodipodi="http://sodipodi.sourceforge.net/DTD/sodipodi-0.dtd"
   xmlns="http://www.w3.org/2000/svg"
   xmlns:svg="http://www.w3.org/2000/svg">
  <defs
     id="defs486" />
  <sodipodi:namedview
     id="namedview484"
     pagecolor="#ffffff"
     bordercolor="#000000"
     borderopacity="0.25"
     inkscape:showpageshadow="2"
     inkscape:pageopacity="0.0"
     inkscape:pagecheckerboard="0"
     inkscape:deskcolor="#d1d1d1"
     showgrid="false"
     inkscape:zoom="8.3100691"
     inkscape:cx="67.989808"
     inkscape:cy="26.534075"
     inkscape:window-width="1920"
     inkscape:window-height="1001"
     inkscape:window-x="-9"
     inkscape:window-y="41"
     inkscape:window-maximized="1"
     inkscape:current-layer="svg482" />
  <g
     id="g651"
     transform="matrix(1.412586,0,0,1.412586,-25.544802,-3.9123661)">
    <path
       d="M 34.715204,11.545633 C 34.319641,10.933452 33.763416,10.443154 33.06758,10.073076 32.54864,9.7987863 31.983495,9.6227776 31.400567,9.5539696 v -1.944572 c 0.607748,-0.2326839 0.985028,-0.7456963 0.985028,-1.3451342 0,-0.8166095 -0.728522,-1.4780964 -1.635435,-1.4780964 -0.908021,0 -1.648731,0.6614869 -1.648731,1.4780964 0,0.5994379 0.35512,1.1130043 0.962868,1.3451342 v 1.9462341 c -0.50088,0.064431 -0.989571,0.2022133 -1.450396,0.4088587 -0.940154,-0.6426506 -4.023214,-2.7489933 -5.826514,-3.9794476 0.04321,-0.1385023 0.0759,-0.2819907 0.0759,-0.4326812 -5.55e-4,-0.9052509 -0.814948,-1.638205 -1.820475,-1.638205 -1.005527,0 -1.81992,0.7329541 -1.81992,1.637651 0,0.9041429 0.814393,1.637651 1.821028,1.637651 0.326367,-2.271e-4 0.647471,-0.082121 0.934059,-0.2382239 l 0.380605,0.2592763 5.229846,3.388874 c -0.277005,0.228252 -0.534065,0.487528 -0.740156,0.779491 -0.417169,0.593898 -0.672567,1.247628 -0.672567,1.960084 v 0.149029 c 0,0.50027 0.105815,0.97284 0.285868,1.416601 0.162713,0.389358 0.391962,0.747469 0.677554,1.058158 l -1.735711,1.565076 c -0.513567,-0.171743 -1.091398,-0.05762 -1.478096,0.291962 -0.128143,0.111412 -0.231133,0.248806 -0.302157,0.403042 -0.07097,0.154292 -0.108253,0.321879 -0.109472,0.491683 0,0.337946 0.146258,0.655947 0.412183,0.894725 0.27429,0.242601 0.6288,0.374898 0.995,0.371186 0.366311,0.0036 0.721043,-0.128641 0.995554,-0.371186 0.128143,-0.111411 0.231133,-0.248806 0.302102,-0.403042 0.07102,-0.154291 0.108308,-0.321879 0.109527,-0.491683 0,-0.130746 -0.02216,-0.258168 -0.06482,-0.379496 l 1.793882,-1.613829 c 0.24598,0.152907 0.511904,0.281437 0.797773,0.392239 0.594119,0.233071 1.226632,0.352793 1.864795,0.352904 h 0.124652 c 0.737275,0.0045 1.465686,-0.161217 2.128503,-0.484204 0.703037,-0.343486 1.253169,-0.813286 1.668675,-1.412724 0.417723,-0.601654 0.647637,-1.265911 0.647637,-1.996649 v -0.03656 c 0,-0.719104 -0.185039,-1.382807 -0.573953,-1.990555 z m -2.191661,3.384996 c -0.486974,0.486974 -1.047077,0.786693 -1.679201,0.786693 h -0.104154 c -0.361768,0 -0.714672,-0.08975 -1.060927,-0.253182 -0.369912,-0.16997 -0.690019,-0.432072 -0.929628,-0.761209 -0.250412,-0.319109 -0.386698,-0.667581 -0.386698,-1.035997 v -0.113018 c 0,-0.362876 0.07756,-0.70747 0.272572,-1.032119 0.20864,-0.354899 0.50714,-0.648634 0.865363,-0.851512 0.361878,-0.216729 0.776554,-0.329248 1.198321,-0.325204 h 0.041 c 0.396671,0 0.772289,0.07036 1.126855,0.233792 0.350964,0.163544 0.655392,0.412515 0.885306,0.72409 0.222158,0.313015 0.354566,0.650407 0.397225,1.017715 0.0066,0.07645 0.01,0.155122 0.01,0.22936 0,0.498608 -0.212186,0.961206 -0.636003,1.380591 z"
       fill="#919191"
       id="path480"
       style="stroke-width:0.554009" />
    <path
       d="m 26.747145,15.462688 c 0.395563,0.612181 0.951788,1.102479 1.647624,1.472557 0.51894,0.27429 1.084085,0.450299 1.667013,0.519107 v 1.944572 c -0.607748,0.232683 -0.985028,0.745696 -0.985028,1.345134 0,0.81661 0.728522,1.478097 1.635435,1.478097 0.908021,0 1.648731,-0.661487 1.648731,-1.478097 0,-0.599438 -0.35512,-1.113005 -0.962868,-1.345134 v -1.946235 c 0.50088,-0.06443 0.989571,-0.202213 1.450396,-0.408858 0.940154,0.64265 4.023214,2.748994 5.826514,3.979448 -0.04321,0.138502 -0.0759,0.281991 -0.0759,0.432681 5.55e-4,0.905251 0.814948,1.638205 1.820475,1.638205 1.005527,0 1.81992,-0.732954 1.81992,-1.637651 0,-0.904143 -0.814393,-1.637651 -1.821028,-1.637651 -0.326367,2.27e-4 -0.647471,0.08212 -0.934059,0.238224 l -0.380605,-0.259276 -5.229846,-3.388875 c 0.277005,-0.228252 0.534065,-0.487528 0.740156,-0.779491 0.417169,-0.593898 0.672567,-1.247628 0.672567,-1.960084 v -0.149029 c 0,-0.50027 -0.105815,-0.97284 -0.285868,-1.416601 -0.162713,-0.389358 -0.391962,-0.747469 -0.677554,-1.058158 l 1.735711,-1.5650758 c 0.513567,0.171743 1.091398,0.05762 1.478096,-0.291962 0.128143,-0.111412 0.231133,-0.248806 0.302157,-0.403042 0.07097,-0.154292 0.108253,-0.321879 0.109472,-0.491683 0,-0.337946 -0.146258,-0.655947 -0.412183,-0.894725 -0.27429,-0.242601 -0.6288,-0.374898 -0.995,-0.371186 -0.366311,-0.0036 -0.721043,0.128641 -0.995554,0.371186 -0.128143,0.111411 -0.231133,0.248806 -0.302102,0.403042 -0.07102,0.154291 -0.108308,0.321879 -0.109527,0.491683 0,0.130746 0.02216,0.258168 0.06482,0.379496 L 33.405228,10.287135 C 33.159248,10.134228 32.893324,10.005698 32.607455,9.8948962 32.013336,9.6618252 31.380823,9.5421032 30.74266,9.5419922 h -0.124652 c -0.737275,-0.0045 -1.465686,0.161217 -2.128503,0.4842038 -0.703037,0.343486 -1.253169,0.813286 -1.668675,1.412724 -0.417723,0.601654 -0.647637,1.265911 -0.647637,1.996649 v 0.03656 c 0,0.719104 0.185039,1.382807 0.573953,1.990555 z m 2.191661,-3.384996 c 0.486974,-0.486974 1.047077,-0.786693 1.679201,-0.786693 h 0.104154 c 0.361768,0 0.714672,0.08975 1.060927,0.253182 0.369912,0.16997 0.690019,0.432072 0.929628,0.761209 0.250412,0.319109 0.386698,0.667581 0.386698,1.035997 v 0.113018 c 0,0.362876 -0.07756,0.70747 -0.272572,1.032119 -0.20864,0.354899 -0.50714,0.648634 -0.865363,0.851512 -0.361878,0.216729 -0.776554,0.329248 -1.198321,0.325204 h -0.041 c -0.396671,0 -0.772289,-0.07036 -1.126855,-0.233792 -0.350964,-0.163544 -0.655392,-0.412515 -0.885306,-0.72409 -0.222158,-0.313015 -0.354566,-0.650407 -0.397225,-1.017715 -0.0066,-0.07645 -0.01,-0.155122 -0.01,-0.22936 0,-0.498608 0.212186,-0.961206 0.636003,-1.380591 z"
       fill="#919191"
       id="path480-1"
       style="stroke-width:0.554009" />
  </g>
  <text
     xml:space="preserve"
     style="font-weight:900;font-size:18.7918px;font-family:Arial;-inkscape-font-specification:'Arial Heavy';fill:#919191;stroke:#919191;stroke-width:0.612279;stroke-linecap:square;stroke-linejoin:bevel;paint-order:markers fill stroke"
     x="28.788033"
     y="21.598375"
     id="text655"><tspan
       sodipodi:role="line"
       id="tspan653"
       x="28.788033"
       y="21.598375"
       style="stroke-width:0.612279">Genetic</tspan></text>
</svg>
