<?xml version="1.0" encoding="UTF-8" standalone="no"?>
<svg
   width="83"
   height="30"
   viewBox="0 0 83 30"
   fill="none"
   version="1.1"
   id="svg4620"
   sodipodi:docname="clients-02.svg"
   inkscape:version="1.2.2 (732a01da63, 2022-12-09)"
   xmlns:inkscape="http://www.inkscape.org/namespaces/inkscape"
   xmlns:sodipodi="http://sodipodi.sourceforge.net/DTD/sodipodi-0.dtd"
   xmlns="http://www.w3.org/2000/svg"
   xmlns:svg="http://www.w3.org/2000/svg">
  <sodipodi:namedview
     id="namedview4622"
     pagecolor="#ffffff"
     bordercolor="#000000"
     borderopacity="0.25"
     inkscape:showpageshadow="2"
     inkscape:pageopacity="0.0"
     inkscape:pagecheckerboard="0"
     inkscape:deskcolor="#d1d1d1"
     showgrid="false"
     inkscape:zoom="11.313709"
     inkscape:cx="47.376154"
     inkscape:cy="20.019961"
     inkscape:window-width="1920"
     inkscape:window-height="1001"
     inkscape:window-x="-9"
     inkscape:window-y="41"
     inkscape:window-maximized="1"
     inkscape:current-layer="svg4620" />
  <defs
     id="defs4618">
    <clipPath
       id="clip0_3_4">
      <rect
         width="83"
         height="30"
         fill="white"
         id="rect4615" />
    </clipPath>
    <clipPath
       clipPathUnits="userSpaceOnUse"
       id="clipPath2725">
      <path
         d="m 141.5069,887.2231 c 33.1112,0 59.9534,-26.7965 59.9534,-59.851 0,-33.0551 -26.8422,-59.8512 -59.9534,-59.8512 -33.1112,0 -59.953,26.7961 -59.953,59.8512 0,33.0545 26.8418,59.851 59.953,59.851 z m 0,-4.701 c 30.5105,0 55.2442,-24.6914 55.2442,-55.15 0,-30.4588 -24.7337,-55.1503 -55.2442,-55.1503 -30.5107,0 -55.2444,24.6915 -55.2444,55.1503 0,30.4586 24.7337,55.15 55.2444,55.15"
         clip-rule="evenodd"
         id="path2723" />
    </clipPath>
    <linearGradient
       x1="34.689999"
       y1="942.72998"
       x2="229.73"
       y2="746.47998"
       gradientUnits="userSpaceOnUse"
       spreadMethod="pad"
       id="linearGradient2755">
      <stop
         style="stop-opacity:1;stop-color:#ce7b2c"
         offset="0"
         id="stop2727" />
      <stop
         style="stop-opacity:1;stop-color:#d28d2b"
         offset="0.08"
         id="stop2729" />
      <stop
         style="stop-opacity:1;stop-color:#d28d2b"
         offset="0.17"
         id="stop2731" />
      <stop
         style="stop-opacity:1;stop-color:#e0b14d"
         offset="0.27"
         id="stop2733" />
      <stop
         style="stop-opacity:1;stop-color:#fef09a"
         offset="0.34"
         id="stop2735" />
      <stop
         style="stop-opacity:1;stop-color:#fdf8c0"
         offset="0.4"
         id="stop2737" />
      <stop
         style="stop-opacity:1;stop-color:#fef09a"
         offset="0.48"
         id="stop2739" />
      <stop
         style="stop-opacity:1;stop-color:#e0b14d"
         offset="0.58"
         id="stop2741" />
      <stop
         style="stop-opacity:1;stop-color:#d28d2b"
         offset="0.67"
         id="stop2743" />
      <stop
         style="stop-opacity:1;stop-color:#cc802d"
         offset="0.77"
         id="stop2745" />
      <stop
         style="stop-opacity:1;stop-color:#d2842b"
         offset="0.83"
         id="stop2747" />
      <stop
         style="stop-opacity:1;stop-color:#e6a125"
         offset="0.88"
         id="stop2749" />
      <stop
         style="stop-opacity:1;stop-color:#f0b33a"
         offset="0.93"
         id="stop2751" />
      <stop
         style="stop-opacity:1;stop-color:#c76f2e"
         offset="1"
         id="stop2753" />
    </linearGradient>
    <clipPath
       clipPathUnits="userSpaceOnUse"
       id="clipPath2765">
      <path
         d="m 141.5069,882.5221 c 30.5105,0 55.2442,-24.6914 55.2442,-55.15 0,-30.4588 -24.7337,-55.1503 -55.2442,-55.1503 -30.5107,0 -55.2444,24.6915 -55.2444,55.1503 0,30.4586 24.7337,55.15 55.2444,55.15 z m 3e-4,-11.0636 c 24.3899,0 44.1618,-19.7379 44.1618,-44.0864 0,-24.3487 -19.7719,-44.0869 -44.1618,-44.0869 -24.3901,0 -44.1621,19.7382 -44.1621,44.0869 0,24.3485 19.772,44.0864 44.1621,44.0864"
         clip-rule="evenodd"
         id="path2763" />
    </clipPath>
    <linearGradient
       x1="142.60001"
       y1="827.33002"
       x2="139.99001"
       y2="749.87"
       gradientUnits="userSpaceOnUse"
       spreadMethod="pad"
       id="linearGradient2771">
      <stop
         style="stop-opacity:1;stop-color:#cf661b"
         offset="0"
         id="stop2767" />
      <stop
         style="stop-opacity:1;stop-color:#a23334"
         offset="1"
         id="stop2769" />
    </linearGradient>
    <clipPath
       clipPathUnits="userSpaceOnUse"
       id="clipPath2781">
      <path
         d="m 141.5069,871.4588 c 24.3899,0 44.1618,-19.7385 44.1618,-44.087 0,-24.3484 -19.7719,-44.0866 -44.1618,-44.0866 -24.3901,0 -44.162,19.7382 -44.162,44.0866 0,24.3485 19.7719,44.087 44.162,44.087"
         clip-rule="evenodd"
         id="path2779" />
    </clipPath>
    <linearGradient
       x1="89.089996"
       y1="769.33002"
       x2="274.66"
       y2="921.51001"
       gradientUnits="userSpaceOnUse"
       spreadMethod="pad"
       id="linearGradient2811">
      <stop
         style="stop-opacity:1;stop-color:#ce7b2c"
         offset="0"
         id="stop2783" />
      <stop
         style="stop-opacity:1;stop-color:#d28d2b"
         offset="0.08"
         id="stop2785" />
      <stop
         style="stop-opacity:1;stop-color:#d28d2b"
         offset="0.17"
         id="stop2787" />
      <stop
         style="stop-opacity:1;stop-color:#e0b14d"
         offset="0.27"
         id="stop2789" />
      <stop
         style="stop-opacity:1;stop-color:#fef09a"
         offset="0.34"
         id="stop2791" />
      <stop
         style="stop-opacity:1;stop-color:#fdf8c0"
         offset="0.4"
         id="stop2793" />
      <stop
         style="stop-opacity:1;stop-color:#e0b14d"
         offset="0.58"
         id="stop2795" />
      <stop
         style="stop-opacity:1;stop-color:#d28d2b"
         offset="0.67"
         id="stop2797" />
      <stop
         style="stop-opacity:1;stop-color:#fef09a"
         offset="0.68"
         id="stop2799" />
      <stop
         style="stop-opacity:1;stop-color:#cc802d"
         offset="0.77"
         id="stop2801" />
      <stop
         style="stop-opacity:1;stop-color:#d2842b"
         offset="0.83"
         id="stop2803" />
      <stop
         style="stop-opacity:1;stop-color:#e6a125"
         offset="0.88"
         id="stop2805" />
      <stop
         style="stop-opacity:1;stop-color:#f0b33a"
         offset="0.93"
         id="stop2807" />
      <stop
         style="stop-opacity:1;stop-color:#c76f2e"
         offset="1"
         id="stop2809" />
    </linearGradient>
  </defs>
  <path
     d="m 16.292888,0.50915856 c 7.845787,0 14.427362,6.33968154 14.427362,14.42678144 0,8.087099 -6.581508,14.426892 -14.427362,14.426892 -7.8458316,0 -14.4272723,-6.339793 -14.4272723,-14.426892 0,-8.0870999 6.5815077,-14.42678144 14.4272723,-14.42678144"
     style="fill:#666666;fill-opacity:1;fill-rule:evenodd;stroke:none;stroke-width:0.223272"
     id="path2717" />
  <g
     id="g2719"
     transform="matrix(0.22327225,0,0,-0.22327225,-15.301676,199.66517)"
     style="fill:#919191;fill-opacity:1">
    <g
       id="g2721"
       clip-path="url(#clipPath2725)"
       style="fill:#919191;fill-opacity:1">
      <path
         d="m 141.5069,887.2231 c 33.1112,0 59.9534,-26.7965 59.9534,-59.851 0,-33.0551 -26.8422,-59.8512 -59.9534,-59.8512 -33.1112,0 -59.953,26.7961 -59.953,59.8512 0,33.0545 26.8418,59.851 59.953,59.851 z m 0,-4.701 c 30.5105,0 55.2442,-24.6914 55.2442,-55.15 0,-30.4588 -24.7337,-55.1503 -55.2442,-55.1503 -30.5107,0 -55.2444,24.6915 -55.2444,55.1503 0,30.4586 24.7337,55.15 55.2444,55.15"
         style="fill:#919191;fill-rule:evenodd;stroke:none;fill-opacity:1"
         id="path2757" />
    </g>
  </g>
  <g
     id="g2759"
     transform="matrix(0.22327225,0,0,-0.22327225,-15.301676,199.66517)"
     style="fill:#666666;fill-opacity:1">
    <g
       id="g2761"
       clip-path="url(#clipPath2765)"
       style="fill:#666666;fill-opacity:1">
      <path
         d="m 141.5069,882.5221 c 30.5105,0 55.2442,-24.6914 55.2442,-55.15 0,-30.4588 -24.7337,-55.1503 -55.2442,-55.1503 -30.5107,0 -55.2444,24.6915 -55.2444,55.1503 0,30.4586 24.7337,55.15 55.2444,55.15 z m 3e-4,-11.0636 c 24.3899,0 44.1618,-19.7379 44.1618,-44.0864 0,-24.3487 -19.7719,-44.0869 -44.1618,-44.0869 -24.3901,0 -44.1621,19.7382 -44.1621,44.0869 0,24.3485 19.772,44.0864 44.1621,44.0864"
         style="fill:#666666;fill-rule:evenodd;stroke:none;fill-opacity:1"
         id="path2773" />
    </g>
  </g>
  <g
     id="g2775"
     transform="matrix(0.22327225,0,0,-0.22327225,-15.301676,199.66517)"
     style="fill:#919191;fill-opacity:1">
    <g
       id="g2777"
       clip-path="url(#clipPath2781)"
       style="fill:#919191;fill-opacity:1">
      <path
         d="m 141.5069,871.4588 c 24.3899,0 44.1618,-19.7385 44.1618,-44.087 0,-24.3484 -19.7719,-44.0866 -44.1618,-44.0866 -24.3901,0 -44.162,19.7382 -44.162,44.0866 0,24.3485 19.7719,44.087 44.162,44.087"
         style="fill:#919191;fill-rule:evenodd;stroke:none;fill-opacity:1"
         id="path2813" />
    </g>
  </g>
  <g
     id="g2815"
     transform="matrix(0.22327225,0,0,-0.22327225,-15.301676,199.66517)"
     style="fill:#666666;fill-opacity:1">
    <path
       d="m 130.3722,855.1749 c 0.1578,0.0899 0.263,0.1205 0.3636,0.2849 0.3082,0.5028 -0.1924,1.1296 -0.7443,0.9431 -0.5568,-0.1874 -0.6049,-0.8759 -0.1443,-1.1537 0.1888,-0.1143 0.1964,-0.0131 0.049,-0.3807 -0.3316,-0.8266 -0.8297,-1.7972 -1.3402,-2.5186 -0.1131,-0.1599 -0.4697,-0.6494 -0.6041,-0.6656 -0.1068,0.0482 -0.5082,0.512 -0.5791,0.5956 -0.3912,0.4603 -0.6571,0.8345 -1.0026,1.3484 l -0.4482,0.7087 c 0.002,-0.2299 0.0681,-0.5465 0.0927,-0.7727 0.0267,-0.2481 0.3102,-2.2332 0.2608,-2.2964 -0.1017,-0.106 -0.8949,0.3949 -0.9861,0.4541 -0.4346,0.2798 -0.8927,0.6681 -1.2453,0.9987 l -0.7501,0.7452 c -0.0646,0.0706 -0.32,0.3611 -0.373,0.3832 l 2.346,-5.2472 9.8206,6e-4 c 0.0558,0.1069 0.1494,0.4584 0.1947,0.6089 0.0596,0.1995 0.1259,0.4048 0.1877,0.6057 0.0847,0.275 1.1123,3.5246 1.127,3.6318 -0.0255,-0.0533 -0.1031,-0.1769 -0.1425,-0.2418 -0.4816,-0.7926 -1.2042,-1.8218 -2.1561,-2.077 -0.4283,-0.1145 -0.9099,-0.0445 -1.239,0.1582 -0.0204,0.1315 0.0612,0.6058 0.0819,0.7691 0.0323,0.2534 0.0649,0.502 0.0961,0.7514 0.0459,0.3663 0.169,1.2124 0.1865,1.5168 -0.0697,-0.0535 -0.123,-0.178 -0.1788,-0.2707 -0.1803,-0.2993 -1.1506,-1.762 -1.2946,-1.7677 -0.0644,0.0173 -0.1018,0.0857 -0.1426,0.1395 l -0.3458,0.4958 c -0.1304,0.191 -0.2943,0.4779 -0.411,0.701 -0.0842,0.1607 -0.7101,1.3816 -0.6789,1.5514 z m -5.0828,-6.9945 c 0.002,-0.2239 0,-0.449 0,-0.6732 0,-0.5854 -0.0485,-0.5168 0.1508,-0.5145 0.4578,0.005 0.9181,0 1.3759,3e-4 0.9173,5e-4 1.834,-3e-4 2.751,0 1.8264,8e-4 3.6726,0.0261 5.4967,-9e-4 0.0283,0.1001 0.0167,1.0369 0.009,1.1985 -1.6263,0.0227 -3.2692,9e-4 -4.8974,9e-4 -0.2393,0 -4.7787,0.0207 -4.8855,-0.0111 z m -2.7343,6.516 c -0.4669,-0.1219 -0.3311,-0.8215 0.1927,-0.7172 0.0913,0.0182 0.1449,0.0502 0.2135,0.1534 0.1848,0.2786 -0.0655,0.6528 -0.4062,0.5638 z m 14.3109,0.005 c -0.5074,-0.1159 -0.3364,-0.8223 0.1526,-0.7271 0.1955,0.0383 0.3342,0.2339 0.2837,0.4521 -0.0411,0.1775 -0.231,0.3221 -0.4363,0.275 z m -11.2186,0.4802 c -0.4785,-0.1562 -0.2574,-0.8374 0.2225,-0.7169 0.127,0.0318 0.3203,0.2265 0.2517,0.4706 -0.0448,0.1601 -0.2443,0.3214 -0.4742,0.2463 z m 7.8621,0.008 c -0.1944,-0.0482 -0.3466,-0.2103 -0.2894,-0.4481 0.0247,-0.1038 0.0797,-0.169 0.15,-0.2169 0.1162,-0.0788 0.0547,-0.0553 0.1307,-0.0649 0.0513,-0.006 0.1394,-0.003 0.1899,0.01 0.453,0.1134 0.2968,0.8391 -0.1812,0.7203"
       style="fill:#666666;fill-opacity:1;fill-rule:evenodd;stroke:none"
       id="path2817" />
    <path
       d="m 149.1129,806.0729 v -7.5677 h 4.4503 v 2.8157 c 1.5021,0 1.2459,-0.2772 1.2459,2.4641 0,0.6469 -0.3804,0.5279 -1.2459,0.5279 0,1.1471 -0.297,2.6399 1.0679,2.6399 0.4149,0 0.89,-0.4697 0.89,-0.8799 v -7.5677 h 4.4504 c 0,1.6631 0.1355,7.7596 -0.1253,8.6755 -0.9436,3.3156 -6.5846,3.8769 -9.138,2.0664 -0.9618,-0.6814 -1.5953,-1.5548 -1.5953,-3.1742 z m 12.1047,-4.3251 v -3.168 c 2.5532,0 5.8743,0.1318 5.8743,3.8718 v 7.7437 c -4.8028,-0.0836 -4.4773,0.5873 -4.4652,-1.04 l 0.0284,-5.8368 c 0.005,-1.2926 -0.1939,-1.4684 -1.4375,-1.5707 z m -25.2776,7.9877 v -2.8159 h 3.3823 v -8.2715 h 4.4501 v 8.2715 h 3.382 v 3.3437 h -10.6807 c -0.4099,0 -0.5337,-0.1221 -0.5337,-0.5278"
       style="fill:#666666;fill-opacity:1;fill-rule:evenodd;stroke:none"
       id="path2819" />
    <path
       d="m 119.2068,838.1035 v -16.0152 h 5.8745 c 0.0587,0.6991 0.178,0.4238 0.178,0.8799 l -0.178,2.2879 c 0,2.0531 -0.1755,11.3065 0.1777,12.6714 0.6282,2.4284 6.6498,1.9738 8.1238,1.1682 0.7577,-0.4142 1.133,-0.9664 1.133,-2.0478 v -17.5995 c 0,-4.1663 -6.3626,-0.8504 -12.3908,-2.5336 -1.1953,-0.3339 -1.5576,-0.5921 -2.4927,-1.2311 -6.2864,-4.2956 -5.0794,-13.1992 0.9377,-16.359 2.3853,-1.2532 3.967,-0.9955 6.6472,-0.9955 v 5.8076 h -2.3139 c -4.2815,0 -5.0888,7.1663 0.002,7.5651 5.8632,0.4592 8.9635,-1.1608 13.072,1.8601 1.3473,0.991 2.4123,2.9316 2.4123,5.1823 v 20.0634 c 0,2.0287 -1.6107,4.2426 -2.8162,5.1349 -2.7678,2.0486 -9.224,2.0962 -12.746,1.2756 -1.029,-0.2398 -2.4392,-0.9096 -3.2003,-1.5885 -0.2583,-0.2302 -0.1117,-0.0995 -0.2685,-0.2622 -1.3771,-1.4267 -2.1523,-3.0909 -2.1523,-5.264"
       style="fill:#666666;fill-opacity:1;fill-rule:evenodd;stroke:none"
       id="path2821" />
    <path
       d="m 147.3324,819.8002 c 0,-4.6582 3.3262,-8.0954 7.8327,-8.0954 4.5536,0 7.8109,-0.4218 10.726,3.1229 1.0542,1.2818 1.5568,2.9423 1.5568,4.7968 v 26.2227 h -5.8745 v -26.7511 c 0,-1.067 -0.7121,-1.7598 -1.9579,-1.7598 -4.0929,0 -6.4083,-0.6678 -6.4083,1.9358 v 36.783 h -5.8748 z"
       style="fill:#666666;fill-opacity:1;fill-rule:evenodd;stroke:none"
       id="path2823" />
    <path
       d="m 159.2175,853.8528 c 1.4224,0 2.5756,-1.1778 2.5756,-2.6305 0,-1.4528 -1.1532,-2.6306 -2.5756,-2.6306 -1.4224,0 -2.5755,1.1778 -2.5755,2.6306 0,1.4527 1.1531,2.6305 2.5755,2.6305 z m 5.7685,0 c 1.4222,0 2.5753,-1.1778 2.5753,-2.6305 0,-1.4528 -1.1531,-2.6306 -2.5753,-2.6306 -1.4224,0 -2.5755,1.1778 -2.5755,2.6306 0,1.4527 1.1531,2.6305 2.5755,2.6305"
       style="fill:#666666;fill-opacity:1;fill-rule:evenodd;stroke:none"
       id="path2825" />
    <path
       d="m 132.4531,803.6246 c 1.4224,0 2.5755,-1.1778 2.5755,-2.6306 0,-1.4527 -1.1531,-2.6305 -2.5755,-2.6305 -1.4225,0 -2.5753,1.1778 -2.5753,2.6305 0,1.4528 1.1528,2.6306 2.5753,2.6306"
       style="fill:#666666;fill-opacity:1;fill-rule:evenodd;stroke:none"
       id="path2827" />
  </g>
  <text
     xml:space="preserve"
     style="font-weight:900;font-size:16.234px;font-family:Arial;-inkscape-font-specification:'Arial Heavy';fill:#919191;fill-opacity:1;stroke:#666666;stroke-width:0.528944;stroke-linecap:square;stroke-linejoin:bevel;stroke-opacity:1;paint-order:markers fill stroke"
     x="39.144272"
     y="18.282246"
     id="text5574"
     transform="scale(0.80084979,1.2486736)"><tspan
       sodipodi:role="line"
       id="tspan5572"
       x="39.144272"
       y="18.282246"
       style="fill:#919191;fill-opacity:1;stroke:#666666;stroke-width:0.528944;stroke-opacity:1">NIMKO</tspan></text>
</svg>
